<?xml version="1.0" encoding="UTF-8"?>
<svg id="Camada_2" data-name="Camada 2" xmlns="http://www.w3.org/2000/svg" xmlns:xlink="http://www.w3.org/1999/xlink" viewBox="0 0 198.6 216.99">
  <defs>
    <style>
      .cls-1 {
        fill: #fff;
      }

      .cls-2 {
        fill: url(#Gradiente_sem_nome_1654);
      }

      .cls-3 {
        fill: #a78bfa;
      }
    </style>
    <linearGradient id="Gradiente_sem_nome_1654" data-name="Gradiente sem nome 1654" x1="0" y1="108.5" x2="198.6" y2="108.5" gradientUnits="userSpaceOnUse">
      <stop offset="0" stop-color="#c4b5fd"/>
      <stop offset=".25" stop-color="#a78bfa"/>
      <stop offset=".5" stop-color="#8b5cf6"/>
      <stop offset=".75" stop-color="#7c3aed"/>
      <stop offset="1" stop-color="#6d28d9"/>
    </linearGradient>
  </defs>
  <g id="Layer_1" data-name="Layer 1">
    <g>
      <g>
        <path class="cls-3" d="M160.63,151.83c-.99,0-2-.29-2.87-.91C116.11,121.73,63.51,89.54,13.45,62.61c-2.44-1.31-3.35-4.35-2.04-6.78,1.31-2.44,4.35-3.35,6.78-2.04,50.39,27.11,103.35,59.53,145.31,88.93,2.27,1.59,2.81,4.71,1.23,6.98-.97,1.39-2.53,2.13-4.11,2.13Z"/>
        <g>
          <path class="cls-3" d="M168.62,172.11c-2.73-4.41-8.52-5.77-12.93-3.05-20.94,12.96-46.93,27.45-53.73,29.07-3.93-.97-18.18-6.83-39.06-17.45-21.65-11.01-33.46-18.47-36.82-21.27-1.71-8.55-2.06-44.45-1.46-81.23-2.74,1.24-5.78,1.93-8.98,1.93-3.51,0-6.83-.84-9.78-2.31-.14,8.63-.26,19.2-.28,29.93-.11,52.91,2.28,57.7,3.72,60.57,1.33,2.66,4.1,8.21,44.3,28.73,10.1,5.15,20.1,9.93,28.17,13.44,13.82,6.02,17.63,6.52,20.12,6.53h.09c2.93,0,8.52-.17,37.39-16.49,13.52-7.64,25.67-15.15,26.18-15.47,4.41-2.73,5.77-8.52,3.05-12.93Z"/>
          <path class="cls-3" d="M37.49,56.44l44.08-25.45c4.49-2.59,6.03-8.34,3.44-12.83-2.59-4.49-8.34-6.03-12.83-3.44l-44.08,25.45c5.26,3.64,8.86,9.53,9.4,16.26Z"/>
        </g>
        <path class="cls-3" d="M188.23,140.86c-.18,0-.35,0-.53-.01-5.15-.28-9.09-4.58-8.8-9.61,1.82-31.95.73-59.68.22-69.43-6.98-5.6-29.66-21.98-80.5-44.38-4.7-2.07-6.79-7.47-4.67-12.06,2.12-4.59,7.65-6.63,12.35-4.56,67.03,29.53,87.7,49.41,88.54,50.24,1.59,1.56,2.54,3.62,2.7,5.82.1,1.39,2.33,34.56,0,75.38-.28,4.86-4.4,8.61-9.31,8.61Z"/>
        <circle class="cls-3" cx="15.65" cy="58.2" r="15.65"/>
        <circle class="cls-3" cx="183.64" cy="161.39" r="12.52"/>
        <path class="cls-1" d="M101.91,82.96c-13.81,0-25.04,11.23-25.04,25.04s11.23,25.04,25.04,25.04,25.04-11.23,25.04-25.04-11.23-25.04-25.04-25.04h0Z"/>
        <path class="cls-3" d="M20.23,170.41c-1.51,0-3-.68-3.98-1.97-1.68-2.2-1.26-5.34.94-7.02,46.13-35.29,120.98-85.04,168.84-107.75,2.5-1.19,5.49-.12,6.67,2.38,1.19,2.5.12,5.49-2.38,6.67-47.24,22.41-121.32,71.68-167.05,106.65-.91.69-1.98,1.03-3.04,1.03Z"/>
        <path class="cls-3" d="M102.93,212.62c-2.53,0-4.7-1.91-4.97-4.48-4.26-39.97-1.92-122.02,2.85-163.32.32-2.75,2.8-4.72,5.55-4.4,2.75.32,4.72,2.8,4.4,5.55-4.72,40.79-7.04,121.75-2.84,161.11.29,2.75-1.7,5.22-4.45,5.51-.18.02-.36.03-.54.03Z"/>
      </g>
      <g>
        <path class="cls-2" d="M160.63,151.83c-.99,0-2-.29-2.87-.91C116.11,121.73,63.51,89.54,13.45,62.61c-2.44-1.31-3.35-4.35-2.04-6.78,1.31-2.44,4.35-3.35,6.78-2.04,50.39,27.11,103.35,59.53,145.31,88.93,2.27,1.59,2.81,4.71,1.23,6.98-.97,1.39-2.53,2.13-4.11,2.13Z"/>
        <g>
          <path class="cls-2" d="M168.62,172.11c-2.73-4.41-8.52-5.77-12.93-3.05-20.94,12.96-46.93,27.45-53.73,29.07-3.93-.97-18.18-6.83-39.06-17.45-21.65-11.01-33.46-18.47-36.82-21.27-1.71-8.55-2.06-44.45-1.46-81.23-2.74,1.24-5.78,1.93-8.98,1.93-3.51,0-6.83-.84-9.78-2.31-.14,8.63-.26,19.2-.28,29.93-.11,52.91,2.28,57.7,3.72,60.57,1.33,2.66,4.1,8.21,44.3,28.73,10.1,5.15,20.1,9.93,28.17,13.44,13.82,6.02,17.63,6.52,20.12,6.53h.09c2.93,0,8.52-.17,37.39-16.49,13.52-7.64,25.67-15.15,26.18-15.47,4.41-2.73,5.77-8.52,3.05-12.93Z"/>
          <path class="cls-2" d="M37.49,56.44l44.08-25.45c4.49-2.59,6.03-8.34,3.44-12.83-2.59-4.49-8.34-6.03-12.83-3.44l-44.08,25.45c5.26,3.64,8.86,9.53,9.4,16.26Z"/>
        </g>
        <path class="cls-2" d="M188.23,140.86c-.18,0-.35,0-.53-.01-5.15-.28-9.09-4.58-8.8-9.61,1.82-31.95.73-59.68.22-69.43-6.98-5.6-29.66-21.98-80.5-44.38-4.7-2.07-6.79-7.47-4.67-12.06,2.12-4.59,7.65-6.63,12.35-4.56,67.03,29.53,87.7,49.41,88.54,50.24,1.59,1.56,2.54,3.62,2.7,5.82.1,1.39,2.33,34.56,0,75.38-.28,4.86-4.4,8.61-9.31,8.61Z"/>
        <circle class="cls-2" cx="15.65" cy="58.2" r="15.65"/>
        <g>
          <circle class="cls-2" cx="183.64" cy="161.39" r="12.52"/>
          <path class="cls-2" d="M183.64,148.87c6.92,0,12.52,5.61,12.52,12.52s-5.61,12.52-12.52,12.52-12.52-5.61-12.52-12.52,5.61-12.52,12.52-12.52M183.64,147.87c-7.46,0-13.52,6.07-13.52,13.52s6.07,13.52,13.52,13.52,13.52-6.07,13.52-13.52-6.07-13.52-13.52-13.52h0Z"/>
        </g>
        <path class="cls-2" d="M101.91,82.96c-13.81,0-25.04,11.23-25.04,25.04s11.23,25.04,25.04,25.04,25.04-11.23,25.04-25.04-11.23-25.04-25.04-25.04h0Z"/>
        <path class="cls-2" d="M20.23,170.41c-1.51,0-3-.68-3.98-1.97-1.68-2.2-1.26-5.34.94-7.02,46.13-35.29,120.98-85.04,168.84-107.75,2.5-1.19,5.49-.12,6.67,2.38,1.19,2.5.12,5.49-2.38,6.67-47.24,22.41-121.32,71.68-167.05,106.65-.91.69-1.98,1.03-3.04,1.03Z"/>
        <path class="cls-2" d="M102.93,212.62c-2.53,0-4.7-1.91-4.97-4.48-4.26-39.97-1.92-122.02,2.85-163.32.32-2.75,2.8-4.72,5.55-4.4,2.75.32,4.72,2.8,4.4,5.55-4.72,40.79-7.04,121.75-2.84,161.11.29,2.75-1.7,5.22-4.45,5.51-.18.02-.36.03-.54.03Z"/>
      </g>
    </g>
  </g>
</svg>